<svg width="40" height="40" viewBox="0 0 40 40" fill="none" xmlns="http://www.w3.org/2000/svg">
<path d="M20.5 13.1094C24.5137 13.1094 27.7656 16.3613 27.7656 20.375C27.7656 24.3887 24.5137 27.6406 20.5 27.6406C16.4863 27.6406 13.2344 24.3887 13.2344 20.375C13.2344 16.3613 16.4863 13.1094 20.5 13.1094ZM20.5 26.2344C23.7227 26.2344 26.3594 23.627 26.3594 20.375C26.3594 17.1523 23.7227 14.5156 20.5 14.5156C17.248 14.5156 14.6406 17.1523 14.6406 20.375C14.6406 23.627 17.248 26.2344 20.5 26.2344ZM22.2871 23.1875L19.7969 21.3711C19.709 21.3125 19.6797 21.1953 19.6797 21.1074V16.2734C19.6797 16.0977 19.8262 15.9219 20.0312 15.9219H20.9688C21.1445 15.9219 21.3203 16.0977 21.3203 16.2734V20.4336L23.2539 21.8691C23.4297 21.9863 23.459 22.1914 23.3418 22.3672L22.7852 23.0996C22.668 23.2754 22.4629 23.3047 22.2871 23.1875Z" fill="#00B050"/>
</svg>
