<svg width="40" height="40" viewBox="0 0 40 40" fill="none" xmlns="http://www.w3.org/2000/svg">
<path d="M17.3359 21.3125H16.1641C15.959 21.3125 15.8125 21.166 15.8125 20.9609V19.7891C15.8125 19.6133 15.959 19.4375 16.1641 19.4375H17.3359C17.5117 19.4375 17.6875 19.6133 17.6875 19.7891V20.9609C17.6875 21.166 17.5117 21.3125 17.3359 21.3125ZM20.5 20.9609C20.5 21.166 20.3242 21.3125 20.1484 21.3125H18.9766C18.7715 21.3125 18.625 21.166 18.625 20.9609V19.7891C18.625 19.6133 18.7715 19.4375 18.9766 19.4375H20.1484C20.3242 19.4375 20.5 19.6133 20.5 19.7891V20.9609ZM23.3125 20.9609C23.3125 21.166 23.1367 21.3125 22.9609 21.3125H21.7891C21.584 21.3125 21.4375 21.166 21.4375 20.9609V19.7891C21.4375 19.6133 21.584 19.4375 21.7891 19.4375H22.9609C23.1367 19.4375 23.3125 19.6133 23.3125 19.7891V20.9609ZM20.5 23.7734C20.5 23.9785 20.3242 24.125 20.1484 24.125H18.9766C18.7715 24.125 18.625 23.9785 18.625 23.7734V22.6016C18.625 22.4258 18.7715 22.25 18.9766 22.25H20.1484C20.3242 22.25 20.5 22.4258 20.5 22.6016V23.7734ZM17.6875 23.7734C17.6875 23.9785 17.5117 24.125 17.3359 24.125H16.1641C15.959 24.125 15.8125 23.9785 15.8125 23.7734V22.6016C15.8125 22.4258 15.959 22.25 16.1641 22.25H17.3359C17.5117 22.25 17.6875 22.4258 17.6875 22.6016V23.7734ZM23.3125 23.7734C23.3125 23.9785 23.1367 24.125 22.9609 24.125H21.7891C21.584 24.125 21.4375 23.9785 21.4375 23.7734V22.6016C21.4375 22.4258 21.584 22.25 21.7891 22.25H22.9609C23.1367 22.25 23.3125 22.4258 23.3125 22.6016V23.7734ZM26.125 16.1562V26.4688C26.125 27.2598 25.4805 27.875 24.7188 27.875H14.4062C13.6152 27.875 13 27.2598 13 26.4688V16.1562C13 15.3945 13.6152 14.75 14.4062 14.75H15.8125V13.2266C15.8125 13.0508 15.959 12.875 16.1641 12.875H17.3359C17.5117 12.875 17.6875 13.0508 17.6875 13.2266V14.75H21.4375V13.2266C21.4375 13.0508 21.584 12.875 21.7891 12.875H22.9609C23.1367 12.875 23.3125 13.0508 23.3125 13.2266V14.75H24.7188C25.4805 14.75 26.125 15.3945 26.125 16.1562ZM24.7188 26.293V17.5625H14.4062V26.293C14.4062 26.4102 14.4648 26.4688 14.582 26.4688H24.543C24.6309 26.4688 24.7188 26.4102 24.7188 26.293Z" fill="#00B050"/>
</svg>
