<svg width="76" height="46" viewBox="0 0 76 46" fill="none" xmlns="http://www.w3.org/2000/svg">
<path d="M41.1553 30.9829C41.2529 30.9341 41.3424 30.9097 41.4238 30.9097C41.5133 30.9097 41.5825 30.9422 41.6313 31.0073C41.6802 31.0643 41.7046 31.1375 41.7046 31.2271C41.7046 31.341 41.6598 31.4712 41.5703 31.6177C41.4808 31.756 41.3424 31.8822 41.1553 31.9961C40.0729 32.6309 39.0028 33.2656 37.9448 33.9004C36.895 34.527 35.894 35.0926 34.9419 35.5972C33.9897 36.1017 33.1068 36.5086 32.293 36.8179C31.4792 37.1353 30.7671 37.2939 30.1567 37.2939C29.8394 37.2939 29.5545 37.2451 29.3022 37.1475C29.0581 37.0498 28.8506 36.8952 28.6797 36.6836C28.5088 36.472 28.3745 36.2035 28.2769 35.8779C28.1873 35.5443 28.1426 35.1414 28.1426 34.6694C28.1426 34.3276 28.167 33.9492 28.2158 33.5342C28.2728 33.1191 28.3542 32.6553 28.46 32.1426C28.5739 31.5973 28.7244 31.0358 28.9116 30.458C29.0988 29.8802 29.2941 29.3187 29.4976 28.7734C29.701 28.2201 29.8963 27.7033 30.0835 27.2231C30.2707 26.743 30.4172 26.332 30.5229 25.9902C30.3358 26.0146 30.1649 26.0269 30.0103 26.0269C29.4487 26.0269 28.9604 25.9251 28.5454 25.7217C28.1385 25.5101 27.8008 25.2334 27.5322 24.8916C27.2718 24.5417 27.0765 24.1388 26.9463 23.6831C26.8161 23.2274 26.751 22.7554 26.751 22.2671C26.751 21.6812 26.8405 21.0952 27.0195 20.5093C27.1986 19.9233 27.459 19.3984 27.8008 18.9346C28.1507 18.4707 28.5739 18.0923 29.0703 17.7993C29.5749 17.5063 30.1486 17.3599 30.7915 17.3599C31.5809 17.3599 32.2238 17.4901 32.7202 17.7505C33.2166 18.0109 33.6032 18.3527 33.8799 18.7759C34.1647 19.1909 34.356 19.6629 34.4536 20.1919C34.5513 20.7127 34.6001 21.2376 34.6001 21.7666C34.6001 22.1328 34.5838 22.4909 34.5513 22.8408C34.5269 23.1908 34.4984 23.5163 34.4658 23.8174C34.4333 24.1104 34.4007 24.3748 34.3682 24.6108C34.3438 24.8468 34.3315 25.0299 34.3315 25.1602C35.6255 24.7858 36.7078 24.3179 37.5786 23.7563C38.4575 23.1948 39.1615 22.5804 39.6904 21.9131C40.2275 21.2376 40.61 20.5256 40.8379 19.7769C41.0658 19.02 41.1797 18.2632 41.1797 17.5063C41.1797 16.4403 40.9722 15.5166 40.5571 14.7354C40.1502 13.9541 39.5928 13.3112 38.8848 12.8066C38.1849 12.2939 37.363 11.9155 36.4189 11.6714C35.4831 11.4272 34.4862 11.3052 33.4282 11.3052C32.0692 11.3052 30.6287 11.472 29.1069 11.8057C28.6593 13.5879 28.1873 15.2603 27.6909 16.8228C27.1945 18.3771 26.694 19.8175 26.1895 21.144C25.6849 22.4624 25.1925 23.6668 24.7124 24.7573C24.2323 25.8478 23.7806 26.8203 23.3574 27.6748C22.9342 28.5212 22.5558 29.2454 22.2222 29.8477C21.8885 30.4499 21.62 30.93 21.4165 31.2881C22.0187 31.752 22.5558 32.1507 23.0278 32.4844C23.4998 32.8099 23.9108 33.0907 24.2607 33.3267C24.6107 33.5627 24.9036 33.762 25.1396 33.9248C25.3757 34.0794 25.5628 34.2178 25.7012 34.3398L25.4937 34.6816C25.3716 34.6816 25.1966 34.6369 24.9688 34.5474C24.749 34.4578 24.5008 34.3398 24.2241 34.1934C23.9474 34.0469 23.6545 33.88 23.3452 33.6929C23.036 33.5057 22.7349 33.3104 22.4419 33.1069C22.1571 32.9035 21.8926 32.7041 21.6484 32.5088C21.4043 32.3135 21.209 32.1344 21.0625 31.9717C20.6637 32.639 20.1877 33.2331 19.6343 33.7539C19.089 34.2747 18.4827 34.7183 17.8154 35.0845C17.1562 35.4425 16.4442 35.7152 15.6792 35.9023C14.9142 36.0895 14.1126 36.1831 13.2744 36.1831C12.363 36.1831 11.5044 36.1139 10.6987 35.9756C9.89307 35.8291 9.11589 35.5361 8.36719 35.0967C8.2207 35.0234 8.07015 34.9421 7.91553 34.8525C7.7609 34.763 7.61849 34.6735 7.48828 34.584C7.35807 34.4863 7.24821 34.3968 7.15869 34.3154C7.06917 34.2259 7.01628 34.1445 7 34.0713H7.21973C7.236 34.0713 7.39469 34.1405 7.6958 34.2788C8.00505 34.409 8.39974 34.5555 8.87988 34.7183C9.36003 34.8729 9.9012 35.0153 10.5034 35.1455C11.1056 35.2757 11.7119 35.3408 12.3223 35.3408C12.9245 35.3408 13.4941 35.2676 14.0312 35.1211C14.5684 34.9746 15.0648 34.7752 15.5205 34.5229C15.9844 34.2707 16.4035 33.9818 16.7778 33.6562C17.1522 33.3226 17.4818 32.9767 17.7666 32.6187C18.0514 32.2524 18.2874 31.8862 18.4746 31.52C18.6699 31.1457 18.8123 30.7917 18.9019 30.458C18.0148 29.7663 17.2539 29.0827 16.6191 28.4072C15.9925 27.7318 15.4757 27.0645 15.0688 26.4053C14.6701 25.7461 14.3771 25.0991 14.1899 24.4644C14.0028 23.8296 13.9092 23.207 13.9092 22.5967C13.9092 21.6771 14.1004 20.7941 14.4829 19.9478C14.8735 19.1014 15.4066 18.3039 16.082 17.5552C16.7656 16.7983 17.5672 16.0985 18.4868 15.4556C19.4146 14.8045 20.4155 14.2145 21.4897 13.6855C22.564 13.1566 23.687 12.6968 24.8589 12.3062C26.0389 11.9074 27.223 11.5859 28.4111 11.3418C28.5495 11.0244 28.6838 10.707 28.814 10.3896C28.9523 10.0723 29.0907 9.75081 29.229 9.42529H29.6685C29.6034 9.7264 29.5342 10.0234 29.4609 10.3164C29.3958 10.6094 29.3267 10.8983 29.2534 11.1831C29.9696 11.061 30.6654 10.9674 31.3408 10.9023C32.0244 10.8372 32.6958 10.8047 33.355 10.8047C34.2664 10.8047 35.1494 10.8698 36.0039 11C36.8665 11.1302 37.6722 11.3296 38.4209 11.5981C39.1696 11.8586 39.8532 12.1922 40.4717 12.5991C41.0902 12.9979 41.6191 13.4699 42.0586 14.0151C42.5062 14.5522 42.8521 15.1626 43.0962 15.8462C43.3403 16.5298 43.4624 17.2866 43.4624 18.1167C43.4624 18.6294 43.4136 19.1665 43.3159 19.728C43.1857 20.4604 42.9049 21.1685 42.4736 21.8521C42.0423 22.5356 41.4482 23.1623 40.6914 23.7319C39.9346 24.3016 39.0068 24.7939 37.9082 25.209C36.8096 25.624 35.5238 25.9292 34.0508 26.1245C33.9938 26.2954 33.888 26.5924 33.7334 27.0156C33.5869 27.4388 33.416 27.9271 33.2207 28.4805C33.0254 29.0339 32.8138 29.6198 32.5859 30.2383C32.3662 30.8486 32.1587 31.4346 31.9634 31.9961C31.7681 32.5495 31.5931 33.0459 31.4385 33.4854C31.292 33.9248 31.1903 34.2422 31.1333 34.4375C31.0845 34.6003 31.0601 34.7508 31.0601 34.8892C31.0601 35.174 31.1496 35.3978 31.3286 35.5605C31.5076 35.7152 31.7599 35.7925 32.0854 35.7925C32.3377 35.7925 32.6226 35.7437 32.9399 35.646C33.2655 35.5402 33.6235 35.3734 34.0142 35.1455C34.4211 34.9095 34.8483 34.6654 35.2959 34.4131C35.7435 34.1527 36.244 33.8638 36.7974 33.5464C37.3589 33.2209 37.9937 32.8506 38.7017 32.4355C39.4097 32.0205 40.2275 31.5363 41.1553 30.9829ZM19.8784 29.396C19.9598 29.2739 20.1307 28.9565 20.3911 28.4438C20.6597 27.9312 20.9974 27.2679 21.4043 26.4541C21.8112 25.6403 22.271 24.7004 22.7837 23.6343C23.2964 22.5601 23.8457 21.4004 24.4316 20.1553C25.0176 18.9102 25.6198 17.604 26.2383 16.2368C26.8649 14.8615 27.4875 13.4658 28.106 12.0498C27.1213 12.3184 26.1488 12.652 25.1885 13.0508C24.2363 13.4414 23.333 13.8931 22.4785 14.4058C21.624 14.9103 20.8346 15.4678 20.1104 16.0781C19.3861 16.6885 18.7594 17.3436 18.2305 18.0435C17.7096 18.7352 17.2987 19.4717 16.9976 20.2529C16.7046 21.026 16.5581 21.8317 16.5581 22.6699C16.5581 23.7197 16.8185 24.8102 17.3394 25.9414C17.8602 27.0645 18.7065 28.216 19.8784 29.396ZM30.645 25.27C30.7671 24.8794 30.9054 24.4644 31.0601 24.0249C31.2228 23.5854 31.3734 23.146 31.5117 22.7065C31.6582 22.259 31.7803 21.8236 31.8779 21.4004C31.9756 20.9772 32.0244 20.5866 32.0244 20.2285C32.0244 19.7402 31.9064 19.3496 31.6704 19.0566C31.4344 18.7555 31.0112 18.605 30.4009 18.605C29.88 18.605 29.4243 18.7108 29.0337 18.9224C28.6512 19.134 28.3298 19.4106 28.0693 19.7524C27.8171 20.0942 27.6258 20.4808 27.4956 20.9121C27.3654 21.3434 27.3003 21.7829 27.3003 22.2305C27.3003 22.6374 27.3532 23.0321 27.459 23.4146C27.5648 23.7889 27.7235 24.1226 27.9351 24.4155C28.1466 24.7085 28.4111 24.9445 28.7285 25.1235C29.0459 25.2944 29.4162 25.3799 29.8394 25.3799C30.0916 25.3799 30.3602 25.3433 30.645 25.27ZM55.9653 11.0366C56.8524 11.0366 57.6296 11.1139 58.2969 11.2686C58.9642 11.415 59.5542 11.6185 60.0669 11.8789C60.8319 11.4639 61.6294 11.0895 62.4595 10.7559C63.2896 10.4141 64.1318 10.1252 64.9863 9.88916C65.8408 9.65316 66.6994 9.47005 67.562 9.33984C68.4246 9.20964 69.271 9.14453 70.1011 9.14453C70.2964 9.14453 70.4469 9.19336 70.5527 9.29102C70.6667 9.38053 70.7236 9.48226 70.7236 9.59619C70.7236 9.68571 70.6789 9.76709 70.5894 9.84033C70.4998 9.91357 70.3615 9.9502 70.1743 9.9502C69.5314 9.9502 68.8315 10.0153 68.0747 10.1455C67.3179 10.2676 66.5407 10.4425 65.7432 10.6704C64.9538 10.8983 64.1603 11.175 63.3628 11.5005C62.5734 11.826 61.8206 12.1882 61.1045 12.5869C61.6497 13.0752 62.0444 13.6449 62.2886 14.2959C62.5327 14.9469 62.6548 15.6549 62.6548 16.4199C62.6548 17.2988 62.5246 18.2103 62.2642 19.1543C62.0119 20.0902 61.6619 21.0138 61.2144 21.9253C60.7749 22.8286 60.2541 23.6872 59.6519 24.501C59.0496 25.3148 58.4027 26.0269 57.7109 26.6372C57.0273 27.2476 56.3153 27.7358 55.5747 28.1021C54.8341 28.4601 54.1017 28.6392 53.3774 28.6392C52.7996 28.6392 52.3032 28.5659 51.8882 28.4194C51.4731 28.2729 51.1313 28.0695 50.8628 27.8091C50.5942 27.5405 50.3949 27.2231 50.2646 26.8569C50.1344 26.4826 50.0693 26.0675 50.0693 25.6118C50.0693 24.9771 50.1711 24.2894 50.3745 23.5488C50.578 22.8083 50.8669 22.0474 51.2412 21.2661C51.6237 20.4767 52.0835 19.6792 52.6206 18.8735C53.1577 18.0679 53.7599 17.2826 54.4272 16.5176C55.1027 15.7526 55.8351 15.0202 56.6245 14.3203C57.422 13.6123 58.2603 12.9694 59.1392 12.3916C58.6997 12.1882 58.2033 12.0335 57.6499 11.9277C57.0965 11.8138 56.474 11.7568 55.7822 11.7568C54.6755 11.7568 53.646 11.9115 52.6938 12.2207C51.7498 12.5299 50.8791 12.9572 50.0815 13.5024C49.2922 14.0396 48.5719 14.6784 47.9209 15.4189C47.278 16.1595 46.7043 16.9652 46.1997 17.8359C45.6951 18.6986 45.2557 19.61 44.8813 20.5703C44.5151 21.5225 44.21 22.4868 43.9658 23.4634C43.7298 24.4318 43.5508 25.3921 43.4287 26.3442C43.3148 27.2964 43.2578 28.2038 43.2578 29.0664C43.2578 29.9453 43.4043 30.7876 43.6973 31.5933C43.9984 32.3989 44.4297 33.1151 44.9912 33.7417C45.5527 34.3602 46.2404 34.8566 47.0542 35.231C47.8761 35.5972 48.8079 35.7803 49.8496 35.7803C50.3053 35.7803 50.814 35.6948 51.3755 35.5239C51.937 35.353 52.5229 35.1333 53.1333 34.8647C53.7518 34.5881 54.3784 34.2788 55.0132 33.937C55.6561 33.5871 56.2786 33.2371 56.8809 32.8872C57.4912 32.5291 58.069 32.1833 58.6143 31.8496C59.1595 31.516 59.6478 31.2271 60.0791 30.9829C60.1117 30.9585 60.1523 30.9463 60.2012 30.9463C60.2907 30.9463 60.368 30.987 60.4331 31.0684C60.4982 31.1497 60.5308 31.2474 60.5308 31.3613C60.5308 31.4671 60.4941 31.577 60.4209 31.6909C60.3558 31.8049 60.2419 31.9066 60.0791 31.9961C59.5094 32.3135 58.9316 32.6512 58.3457 33.0093C57.7598 33.3674 57.1616 33.7254 56.5513 34.0835C55.9491 34.4416 55.3346 34.7874 54.708 35.1211C54.0814 35.4466 53.4425 35.7355 52.7915 35.9878C52.1486 36.2401 51.4894 36.4395 50.814 36.5859C50.1466 36.7406 49.4671 36.8179 48.7754 36.8179C47.2454 36.8179 45.9271 36.6104 44.8203 36.1953C43.7217 35.7803 42.8102 35.2147 42.0859 34.4985C41.3698 33.7824 40.8408 32.9442 40.499 31.9839C40.1572 31.0236 39.9863 29.9982 39.9863 28.9077C39.9863 27.6219 40.1532 26.2873 40.4868 24.9038C40.8205 23.5203 41.3047 22.1694 41.9395 20.8511C42.5824 19.5246 43.3636 18.2673 44.2832 17.0791C45.2109 15.891 46.2648 14.8493 47.4448 13.9541C48.633 13.0589 49.9391 12.3509 51.3633 11.8301C52.7956 11.3011 54.3296 11.0366 55.9653 11.0366ZM54.7568 27.0278C55.3509 27.0278 55.9409 26.8854 56.5269 26.6006C57.1128 26.3076 57.6662 25.9129 58.187 25.4165C58.716 24.9201 59.2043 24.3423 59.6519 23.6831C60.0994 23.0158 60.486 22.3118 60.8115 21.5713C61.1452 20.8307 61.4015 20.0658 61.5806 19.2764C61.7677 18.487 61.8613 17.722 61.8613 16.9814C61.8613 16.2165 61.7352 15.5003 61.4829 14.833C61.2306 14.1657 60.8197 13.5879 60.25 13.0996C59.4932 13.6204 58.7729 14.1982 58.0894 14.833C57.4139 15.4678 56.7873 16.131 56.2095 16.8228C55.6317 17.5063 55.1108 18.2103 54.647 18.9346C54.1831 19.6507 53.7884 20.3587 53.4629 21.0586C53.1374 21.7503 52.8851 22.4136 52.7061 23.0483C52.5352 23.6831 52.4497 24.265 52.4497 24.7939C52.4497 25.4694 52.6328 26.0106 52.999 26.4175C53.3652 26.8244 53.9512 27.0278 54.7568 27.0278Z" fill="white"/>
</svg>
